<svg width="254" height="20" viewBox="0 0 254 20" fill="none" xmlns="http://www.w3.org/2000/svg">
<path d="M1.116 15V2.4H7.812V4.074H2.79V7.188H6.138L5.76 8.862H2.79V15H1.116ZM8.97342 15V2.4H10.6474V15H8.97342ZM11.9793 15V2.4H13.6533L17.0013 10.806V2.4H18.6753V15H17.0013L13.6533 6.594V15H11.9793ZM20.1883 15V2.4H26.8843V4.056H21.8623V7.188H25.2103L24.8323 8.862H21.8623V13.326H26.8843V15H20.1883ZM29.2705 15C28.9105 15 28.6045 14.874 28.3525 14.622C28.1005 14.37 27.9745 14.064 27.9745 13.704V10.914L29.6485 11.292V12.678C29.6485 12.858 29.7085 13.014 29.8285 13.146C29.9605 13.266 30.1105 13.326 30.2785 13.326H32.3305C32.5105 13.326 32.6605 13.266 32.7805 13.146C32.9125 13.014 32.9785 12.858 32.9785 12.678V9.51C32.9785 9.33 32.9125 9.18 32.7805 9.06C32.6605 8.928 32.5105 8.862 32.3305 8.862H29.2705C28.9105 8.862 28.6045 8.736 28.3525 8.484C28.1005 8.232 27.9745 7.926 27.9745 7.566V3.696C27.9745 3.336 28.1005 3.03 28.3525 2.778C28.6045 2.526 28.9105 2.4 29.2705 2.4H33.3565C33.7165 2.4 34.0225 2.526 34.2745 2.778C34.5265 3.03 34.6525 3.336 34.6525 3.696V5.64L32.9785 5.244V4.722C32.9785 4.542 32.9125 4.392 32.7805 4.272C32.6605 4.14 32.5105 4.074 32.3305 4.074H30.2785C30.1105 4.074 29.9605 4.14 29.8285 4.272C29.7085 4.392 29.6485 4.542 29.6485 4.722V6.54C29.6485 6.72 29.7085 6.876 29.8285 7.008C29.9605 7.128 30.1105 7.188 30.2785 7.188H33.3565C33.7165 7.188 34.0225 7.314 34.2745 7.566C34.5265 7.818 34.6525 8.124 34.6525 8.484V13.704C34.6525 14.064 34.5265 14.37 34.2745 14.622C34.0225 14.874 33.7165 15 33.3565 15H29.2705ZM37.3916 15C37.0316 15 36.7256 14.874 36.4736 14.622C36.2216 14.37 36.0956 14.064 36.0956 13.704V10.914L37.7696 11.292V12.678C37.7696 12.858 37.8296 13.014 37.9496 13.146C38.0816 13.266 38.2316 13.326 38.3996 13.326H40.4516C40.6316 13.326 40.7816 13.266 40.9016 13.146C41.0336 13.014 41.0996 12.858 41.0996 12.678V9.51C41.0996 9.33 41.0336 9.18 40.9016 9.06C40.7816 8.928 40.6316 8.862 40.4516 8.862H37.3916C37.0316 8.862 36.7256 8.736 36.4736 8.484C36.2216 8.232 36.0956 7.926 36.0956 7.566V3.696C36.0956 3.336 36.2216 3.03 36.4736 2.778C36.7256 2.526 37.0316 2.4 37.3916 2.4H41.4776C41.8376 2.4 42.1436 2.526 42.3956 2.778C42.6476 3.03 42.7736 3.336 42.7736 3.696V5.64L41.0996 5.244V4.722C41.0996 4.542 41.0336 4.392 40.9016 4.272C40.7816 4.14 40.6316 4.074 40.4516 4.074H38.3996C38.2316 4.074 38.0816 4.14 37.9496 4.272C37.8296 4.392 37.7696 4.542 37.7696 4.722V6.54C37.7696 6.72 37.8296 6.876 37.9496 7.008C38.0816 7.128 38.2316 7.188 38.3996 7.188H41.4776C41.8376 7.188 42.1436 7.314 42.3956 7.566C42.6476 7.818 42.7736 8.124 42.7736 8.484V13.704C42.7736 14.064 42.6476 14.37 42.3956 14.622C42.1436 14.874 41.8376 15 41.4776 15H37.3916ZM44.0769 15V2.4H50.7729V4.056H45.7509V7.188H49.0989L48.7209 8.862H45.7509V13.326H50.7729V15H44.0769ZM55.1243 15V13.308H56.8163V15H55.1243ZM62.2831 15C61.9231 15 61.6171 14.874 61.3651 14.622C61.1131 14.37 60.9871 14.064 60.9871 13.704V2.4H62.6611V12.696C62.6611 12.864 62.7211 13.014 62.8411 13.146C62.9731 13.266 63.1291 13.326 63.3091 13.326H65.3431C65.5231 13.326 65.6731 13.266 65.7931 13.146C65.9251 13.014 65.9911 12.864 65.9911 12.696V2.4H67.6651V13.704C67.6651 14.064 67.5391 14.37 67.2871 14.622C67.0351 14.874 66.7291 15 66.3691 15H62.2831ZM70.2627 15C69.9027 15 69.5967 14.874 69.3447 14.622C69.0927 14.37 68.9667 14.064 68.9667 13.704V10.914L70.6407 11.292V12.678C70.6407 12.858 70.7007 13.014 70.8207 13.146C70.9527 13.266 71.1027 13.326 71.2707 13.326H73.3227C73.5027 13.326 73.6527 13.266 73.7727 13.146C73.9047 13.014 73.9707 12.858 73.9707 12.678V9.51C73.9707 9.33 73.9047 9.18 73.7727 9.06C73.6527 8.928 73.5027 8.862 73.3227 8.862H70.2627C69.9027 8.862 69.5967 8.736 69.3447 8.484C69.0927 8.232 68.9667 7.926 68.9667 7.566V3.696C68.9667 3.336 69.0927 3.03 69.3447 2.778C69.5967 2.526 69.9027 2.4 70.2627 2.4H74.3487C74.7087 2.4 75.0147 2.526 75.2667 2.778C75.5187 3.03 75.6447 3.336 75.6447 3.696V5.64L73.9707 5.244V4.722C73.9707 4.542 73.9047 4.392 73.7727 4.272C73.6527 4.14 73.5027 4.074 73.3227 4.074H71.2707C71.1027 4.074 70.9527 4.14 70.8207 4.272C70.7007 4.392 70.6407 4.542 70.6407 4.722V6.54C70.6407 6.72 70.7007 6.876 70.8207 7.008C70.9527 7.128 71.1027 7.188 71.2707 7.188H74.3487C74.7087 7.188 75.0147 7.314 75.2667 7.566C75.5187 7.818 75.6447 8.124 75.6447 8.484V13.704C75.6447 14.064 75.5187 14.37 75.2667 14.622C75.0147 14.874 74.7087 15 74.3487 15H70.2627Z" fill="white"/>
<path d="M90.116 15V2.4H96.812V4.074H91.79V7.188H95.138L94.76 8.862H91.79V15H90.116ZM97.9734 15V2.4H99.6474V15H97.9734ZM100.979 15V2.4H102.653L106.001 10.806V2.4H107.675V15H106.001L102.653 6.594V15H100.979ZM109.188 15V2.4H115.884V4.056H110.862V7.188H114.21L113.832 8.862H110.862V13.326H115.884V15H109.188ZM118.271 15C117.911 15 117.605 14.874 117.353 14.622C117.101 14.37 116.975 14.064 116.975 13.704V10.914L118.649 11.292V12.678C118.649 12.858 118.709 13.014 118.829 13.146C118.961 13.266 119.111 13.326 119.279 13.326H121.331C121.511 13.326 121.661 13.266 121.781 13.146C121.913 13.014 121.979 12.858 121.979 12.678V9.51C121.979 9.33 121.913 9.18 121.781 9.06C121.661 8.928 121.511 8.862 121.331 8.862H118.271C117.911 8.862 117.605 8.736 117.353 8.484C117.101 8.232 116.975 7.926 116.975 7.566V3.696C116.975 3.336 117.101 3.03 117.353 2.778C117.605 2.526 117.911 2.4 118.271 2.4H122.357C122.717 2.4 123.023 2.526 123.275 2.778C123.527 3.03 123.653 3.336 123.653 3.696V5.64L121.979 5.244V4.722C121.979 4.542 121.913 4.392 121.781 4.272C121.661 4.14 121.511 4.074 121.331 4.074H119.279C119.111 4.074 118.961 4.14 118.829 4.272C118.709 4.392 118.649 4.542 118.649 4.722V6.54C118.649 6.72 118.709 6.876 118.829 7.008C118.961 7.128 119.111 7.188 119.279 7.188H122.357C122.717 7.188 123.023 7.314 123.275 7.566C123.527 7.818 123.653 8.124 123.653 8.484V13.704C123.653 14.064 123.527 14.37 123.275 14.622C123.023 14.874 122.717 15 122.357 15H118.271ZM126.392 15C126.032 15 125.726 14.874 125.474 14.622C125.222 14.37 125.096 14.064 125.096 13.704V10.914L126.77 11.292V12.678C126.77 12.858 126.83 13.014 126.95 13.146C127.082 13.266 127.232 13.326 127.4 13.326H129.452C129.632 13.326 129.782 13.266 129.902 13.146C130.034 13.014 130.1 12.858 130.1 12.678V9.51C130.1 9.33 130.034 9.18 129.902 9.06C129.782 8.928 129.632 8.862 129.452 8.862H126.392C126.032 8.862 125.726 8.736 125.474 8.484C125.222 8.232 125.096 7.926 125.096 7.566V3.696C125.096 3.336 125.222 3.03 125.474 2.778C125.726 2.526 126.032 2.4 126.392 2.4H130.478C130.838 2.4 131.144 2.526 131.396 2.778C131.648 3.03 131.774 3.336 131.774 3.696V5.64L130.1 5.244V4.722C130.1 4.542 130.034 4.392 129.902 4.272C129.782 4.14 129.632 4.074 129.452 4.074H127.4C127.232 4.074 127.082 4.14 126.95 4.272C126.83 4.392 126.77 4.542 126.77 4.722V6.54C126.77 6.72 126.83 6.876 126.95 7.008C127.082 7.128 127.232 7.188 127.4 7.188H130.478C130.838 7.188 131.144 7.314 131.396 7.566C131.648 7.818 131.774 8.124 131.774 8.484V13.704C131.774 14.064 131.648 14.37 131.396 14.622C131.144 14.874 130.838 15 130.478 15H126.392ZM133.077 15V2.4H139.773V4.056H134.751V7.188H138.099L137.721 8.862H134.751V13.326H139.773V15H133.077ZM144.124 15V13.308H145.816V15H144.124ZM151.283 15C150.923 15 150.617 14.874 150.365 14.622C150.113 14.37 149.987 14.064 149.987 13.704V2.4H151.661V12.696C151.661 12.864 151.721 13.014 151.841 13.146C151.973 13.266 152.129 13.326 152.309 13.326H154.343C154.523 13.326 154.673 13.266 154.793 13.146C154.925 13.014 154.991 12.864 154.991 12.696V2.4H156.665V13.704C156.665 14.064 156.539 14.37 156.287 14.622C156.035 14.874 155.729 15 155.369 15H151.283ZM159.263 15C158.903 15 158.597 14.874 158.345 14.622C158.093 14.37 157.967 14.064 157.967 13.704V10.914L159.641 11.292V12.678C159.641 12.858 159.701 13.014 159.821 13.146C159.953 13.266 160.103 13.326 160.271 13.326H162.323C162.503 13.326 162.653 13.266 162.773 13.146C162.905 13.014 162.971 12.858 162.971 12.678V9.51C162.971 9.33 162.905 9.18 162.773 9.06C162.653 8.928 162.503 8.862 162.323 8.862H159.263C158.903 8.862 158.597 8.736 158.345 8.484C158.093 8.232 157.967 7.926 157.967 7.566V3.696C157.967 3.336 158.093 3.03 158.345 2.778C158.597 2.526 158.903 2.4 159.263 2.4H163.349C163.709 2.4 164.015 2.526 164.267 2.778C164.519 3.03 164.645 3.336 164.645 3.696V5.64L162.971 5.244V4.722C162.971 4.542 162.905 4.392 162.773 4.272C162.653 4.14 162.503 4.074 162.323 4.074H160.271C160.103 4.074 159.953 4.14 159.821 4.272C159.701 4.392 159.641 4.542 159.641 4.722V6.54C159.641 6.72 159.701 6.876 159.821 7.008C159.953 7.128 160.103 7.188 160.271 7.188H163.349C163.709 7.188 164.015 7.314 164.267 7.566C164.519 7.818 164.645 8.124 164.645 8.484V13.704C164.645 14.064 164.519 14.37 164.267 14.622C164.015 14.874 163.709 15 163.349 15H159.263Z" fill="white"/>
<path d="M178.116 15V2.4H184.812V4.074H179.79V7.188H183.138L182.76 8.862H179.79V15H178.116ZM185.973 15V2.4H187.647V15H185.973ZM188.979 15V2.4H190.653L194.001 10.806V2.4H195.675V15H194.001L190.653 6.594V15H188.979ZM197.188 15V2.4H203.884V4.056H198.862V7.188H202.21L201.832 8.862H198.862V13.326H203.884V15H197.188ZM206.271 15C205.911 15 205.605 14.874 205.353 14.622C205.101 14.37 204.975 14.064 204.975 13.704V10.914L206.649 11.292V12.678C206.649 12.858 206.709 13.014 206.829 13.146C206.961 13.266 207.111 13.326 207.279 13.326H209.331C209.511 13.326 209.661 13.266 209.781 13.146C209.913 13.014 209.979 12.858 209.979 12.678V9.51C209.979 9.33 209.913 9.18 209.781 9.06C209.661 8.928 209.511 8.862 209.331 8.862H206.271C205.911 8.862 205.605 8.736 205.353 8.484C205.101 8.232 204.975 7.926 204.975 7.566V3.696C204.975 3.336 205.101 3.03 205.353 2.778C205.605 2.526 205.911 2.4 206.271 2.4H210.357C210.717 2.4 211.023 2.526 211.275 2.778C211.527 3.03 211.653 3.336 211.653 3.696V5.64L209.979 5.244V4.722C209.979 4.542 209.913 4.392 209.781 4.272C209.661 4.14 209.511 4.074 209.331 4.074H207.279C207.111 4.074 206.961 4.14 206.829 4.272C206.709 4.392 206.649 4.542 206.649 4.722V6.54C206.649 6.72 206.709 6.876 206.829 7.008C206.961 7.128 207.111 7.188 207.279 7.188H210.357C210.717 7.188 211.023 7.314 211.275 7.566C211.527 7.818 211.653 8.124 211.653 8.484V13.704C211.653 14.064 211.527 14.37 211.275 14.622C211.023 14.874 210.717 15 210.357 15H206.271ZM214.392 15C214.032 15 213.726 14.874 213.474 14.622C213.222 14.37 213.096 14.064 213.096 13.704V10.914L214.77 11.292V12.678C214.77 12.858 214.83 13.014 214.95 13.146C215.082 13.266 215.232 13.326 215.4 13.326H217.452C217.632 13.326 217.782 13.266 217.902 13.146C218.034 13.014 218.1 12.858 218.1 12.678V9.51C218.1 9.33 218.034 9.18 217.902 9.06C217.782 8.928 217.632 8.862 217.452 8.862H214.392C214.032 8.862 213.726 8.736 213.474 8.484C213.222 8.232 213.096 7.926 213.096 7.566V3.696C213.096 3.336 213.222 3.03 213.474 2.778C213.726 2.526 214.032 2.4 214.392 2.4H218.478C218.838 2.4 219.144 2.526 219.396 2.778C219.648 3.03 219.774 3.336 219.774 3.696V5.64L218.1 5.244V4.722C218.1 4.542 218.034 4.392 217.902 4.272C217.782 4.14 217.632 4.074 217.452 4.074H215.4C215.232 4.074 215.082 4.14 214.95 4.272C214.83 4.392 214.77 4.542 214.77 4.722V6.54C214.77 6.72 214.83 6.876 214.95 7.008C215.082 7.128 215.232 7.188 215.4 7.188H218.478C218.838 7.188 219.144 7.314 219.396 7.566C219.648 7.818 219.774 8.124 219.774 8.484V13.704C219.774 14.064 219.648 14.37 219.396 14.622C219.144 14.874 218.838 15 218.478 15H214.392ZM221.077 15V2.4H227.773V4.056H222.751V7.188H226.099L225.721 8.862H222.751V13.326H227.773V15H221.077ZM232.124 15V13.308H233.816V15H232.124ZM239.283 15C238.923 15 238.617 14.874 238.365 14.622C238.113 14.37 237.987 14.064 237.987 13.704V2.4H239.661V12.696C239.661 12.864 239.721 13.014 239.841 13.146C239.973 13.266 240.129 13.326 240.309 13.326H242.343C242.523 13.326 242.673 13.266 242.793 13.146C242.925 13.014 242.991 12.864 242.991 12.696V2.4H244.665V13.704C244.665 14.064 244.539 14.37 244.287 14.622C244.035 14.874 243.729 15 243.369 15H239.283ZM247.263 15C246.903 15 246.597 14.874 246.345 14.622C246.093 14.37 245.967 14.064 245.967 13.704V10.914L247.641 11.292V12.678C247.641 12.858 247.701 13.014 247.821 13.146C247.953 13.266 248.103 13.326 248.271 13.326H250.323C250.503 13.326 250.653 13.266 250.773 13.146C250.905 13.014 250.971 12.858 250.971 12.678V9.51C250.971 9.33 250.905 9.18 250.773 9.06C250.653 8.928 250.503 8.862 250.323 8.862H247.263C246.903 8.862 246.597 8.736 246.345 8.484C246.093 8.232 245.967 7.926 245.967 7.566V3.696C245.967 3.336 246.093 3.03 246.345 2.778C246.597 2.526 246.903 2.4 247.263 2.4H251.349C251.709 2.4 252.015 2.526 252.267 2.778C252.519 3.03 252.645 3.336 252.645 3.696V5.64L250.971 5.244V4.722C250.971 4.542 250.905 4.392 250.773 4.272C250.653 4.14 250.503 4.074 250.323 4.074H248.271C248.103 4.074 247.953 4.14 247.821 4.272C247.701 4.392 247.641 4.542 247.641 4.722V6.54C247.641 6.72 247.701 6.876 247.821 7.008C247.953 7.128 248.103 7.188 248.271 7.188H251.349C251.709 7.188 252.015 7.314 252.267 7.566C252.519 7.818 252.645 8.124 252.645 8.484V13.704C252.645 14.064 252.519 14.37 252.267 14.622C252.015 14.874 251.709 15 251.349 15H247.263Z" fill="white"/>
</svg>
